<?xml version="1.0" encoding="utf-8"?>
<!-- Generator: Adobe Illustrator 24.1.2, SVG Export Plug-In . SVG Version: 6.00 Build 0)  -->
<svg version="1.1" id="Layer_1" xmlns="http://www.w3.org/2000/svg" xmlns:xlink="http://www.w3.org/1999/xlink" x="0px" y="0px"
	 viewBox="0 0 512 512" style="enable-background:new 0 0 512 512;" xml:space="preserve">
<style type="text/css">
	.st0{fill:#38AEB3;}
	.st1{fill:#FFFFFF;stroke:#FFFFFF;stroke-miterlimit:10;}
	.st2{fill:#2E2E2E;}
	.st3{fill:#2E2E2E;stroke:#2E2E2E;stroke-width:7;stroke-miterlimit:10;}
</style>
<g>
	<path class="st0" d="M56.1,459h400c36.1,0,58.1-39.4,39-69.8l-200-338.7c-18-28.7-60.1-28.7-78.1,0L17.1,389.2
		C-1.9,419.6,20.1,459,56.1,459L56.1,459z"/>
	<path class="st1" d="M256.1,79l-195,330h390L256.1,79z"/>
	<g>
		<path class="st2" d="M56.1,469c-7.8,0-15.4-1.6-22.5-4.6c-6.7-2.9-12.7-7.1-17.8-12.4c-5-5.2-8.9-11.1-11.6-17.8
			c-2.8-6.7-4.1-13.8-4.2-21C0.1,403,3,392.9,8.6,384L208.5,45.4l0.1-0.2c5.2-8.3,12.4-15.1,21-19.6c8.1-4.3,17.2-6.6,26.4-6.6h0.1
			h0.1c9.2,0,18.3,2.3,26.4,6.6c8.5,4.5,15.8,11.3,21,19.6l0.1,0.2l127.5,215.9l0,0c1.4,2.3,1.7,5,1.1,7.6c-0.7,2.6-2.3,4.8-4.6,6.1
			c-1.5,0.9-3.3,1.4-5.1,1.4c-3.5,0-6.8-1.9-8.6-4.9L286.6,55.8C279.9,45.2,268.8,39,256.1,39c-12.7,0-23.8,6.1-30.5,16.7
			L25.7,394.3l-0.1,0.2c-3.6,5.8-5.5,12.1-5.5,18.7c0,9.1,3.7,18.2,10.1,24.9c6.9,7.1,15.9,10.9,26,10.9h399.9
			c10.1,0,19-3.8,25.9-10.9c6.5-6.7,10.1-15.7,10.1-24.9c0-6.6-1.9-12.9-5.5-18.7l-0.1-0.2L459.7,349c-1.4-2.3-1.7-5-1.1-7.6
			c0.7-2.6,2.3-4.8,4.6-6.1c1.5-0.9,3.3-1.4,5.1-1.4c3.5,0,6.8,1.9,8.6,4.9l26.7,45.2c5.5,8.9,8.5,19,8.5,29.2
			c0,7.2-1.4,14.3-4.1,21c-2.7,6.6-6.6,12.6-11.6,17.8c-5,5.3-11,9.4-17.7,12.4c-7.1,3.1-14.6,4.6-22.5,4.6H56.1z"/>
		<path class="st2" d="M451.1,419h-390c-3.6,0-6.9-1.9-8.7-5s-1.8-7,0.1-10l195-330c1.8-3,5.1-4.9,8.6-4.9c3.5,0,6.8,1.9,8.6,4.9
			l195,330c1.8,3.1,1.9,6.9,0.1,10C458,417.1,454.7,419,451.1,419z M78.6,399h355L256.1,98.7L78.6,399z"/>
		<circle class="st2" cx="445.5" cy="305.2" r="10"/>
	</g>
</g>
<g>
	<g>
		<circle class="st0" cx="256.2" cy="362.9" r="11.2"/>
		<path class="st0" d="M256,338.4c-6.2,0-11.2-5-11.2-11.2v-34.6c0-6.2,5-11.2,11.2-11.2c16.6,0,30.1-13.5,30.1-30.1
			S272.6,221,256,221s-30.1,13.5-30.1,30.1c0,6.2-5,11.2-11.2,11.2c-6.2,0-11.2-5-11.2-11.2c0-29,23.6-52.6,52.5-52.6
			s52.6,23.6,52.6,52.6c0,25.1-17.7,46.2-41.3,51.3v24.6C267.2,333.4,262.2,338.4,256,338.4z"/>
	</g>
	<g>
		<path class="st3" d="M256.2,377.7c-8.2,0-14.8-6.6-14.8-14.8c0-8.2,6.6-14.8,14.8-14.8c8.2,0,14.8,6.6,14.8,14.8
			C271,371,264.4,377.7,256.2,377.7z M256.2,355.3c-4.2,0-7.5,3.4-7.5,7.5c0,4.2,3.4,7.5,7.5,7.5c4.2,0,7.5-3.4,7.5-7.5
			C263.7,358.7,260.4,355.3,256.2,355.3z"/>
		<path class="st3" d="M256,342c-8.2,0-14.8-6.7-14.8-14.8v-34.6c0-8.2,6.7-14.8,14.8-14.8c14.6,0,26.5-11.9,26.5-26.5
			s-11.9-26.5-26.5-26.5c-14.6,0-26.5,11.9-26.5,26.5c0,8.2-6.7,14.8-14.8,14.8s-14.8-6.7-14.8-14.8c0-31,25.2-56.2,56.2-56.2
			s56.2,25.2,56.2,56.2c0,12.9-4.5,25.5-12.6,35.5c-7.4,9.1-17.5,15.7-28.7,18.7v21.8C270.8,335.3,264.2,342,256,342z M256,217.4
			c18.6,0,33.8,15.2,33.8,33.8S274.6,285,256,285c-4.2,0-7.6,3.4-7.6,7.6v34.6c0,4.2,3.4,7.6,7.6,7.6c4.2,0,7.6-3.4,7.6-7.6v-24.6
			c0-1.7,1.2-3.2,2.9-3.6c22.3-4.9,38.5-25,38.5-47.8c0-27-21.9-48.9-48.9-48.9s-48.9,21.9-48.9,48.9c0,4.2,3.4,7.6,7.6,7.6
			c4.2,0,7.6-3.4,7.6-7.6C222.2,232.6,237.4,217.4,256,217.4z"/>
	</g>
</g>
</svg>
